<?xml version="1.0" encoding="UTF-8" standalone="no"?>
<svg
   xmlns:dc="http://purl.org/dc/elements/1.1/"
   xmlns:cc="http://creativecommons.org/ns#"
   xmlns:rdf="http://www.w3.org/1999/02/22-rdf-syntax-ns#"
   xmlns:svg="http://www.w3.org/2000/svg"
   xmlns="http://www.w3.org/2000/svg"
   xmlns:sodipodi="http://sodipodi.sourceforge.net/DTD/sodipodi-0.dtd"
   xmlns:inkscape="http://www.inkscape.org/namespaces/inkscape"
   sodipodi:docname="screenshots.svg"
   inkscape:version="1.0 (4035a4fb49, 2020-05-01)"
   id="svg8"
   version="1.1"
   viewBox="0 0 210 297"
   height="297mm"
   width="210mm">
  <defs
     id="defs2" />
  <sodipodi:namedview
     inkscape:window-maximized="0"
     inkscape:window-y="35"
     inkscape:window-x="5"
     inkscape:window-height="728"
     inkscape:window-width="1358"
     showgrid="false"
     inkscape:document-rotation="0"
     inkscape:current-layer="layer1"
     inkscape:document-units="mm"
     inkscape:cy="1054.2067"
     inkscape:cx="379.04904"
     inkscape:zoom="0.39657738"
     inkscape:pageshadow="2"
     inkscape:pageopacity="0.0"
     borderopacity="1.0"
     bordercolor="#666666"
     pagecolor="#ffffff"
     id="base" />
  <metadata
     id="metadata5">
    <rdf:RDF>
      <cc:Work
         rdf:about="">
        <dc:format>image/svg+xml</dc:format>
        <dc:type
           rdf:resource="http://purl.org/dc/dcmitype/StillImage" />
        <dc:title></dc:title>
      </cc:Work>
    </rdf:RDF>
  </metadata>
  <g
     id="layer1"
     inkscape:groupmode="layer"
     inkscape:label="Layer 1">
    <path
       inkscape:export-ydpi="238.22249"
       inkscape:export-xdpi="238.22249"
       sodipodi:nodetypes="ssccccscccsscsccccsscccccccsccccccsccscccccccscsccsccccccsccsssccsc"
       id="path847"
       d="m 93.336611,179.04292 c -0.384748,-0.20902 -0.831232,-0.7578 -0.992188,-1.21952 -0.285505,-0.819 -0.361414,-6.05957 -0.228073,-9.23827 -0.08545,-4.93687 5.166198,-4.73691 4.96251,0.25442 v 1.4561 4.1214 h 6.17823 c 2.08127,0 3.60477,0.0137 4.73469,0.0677 5.34375,-0.073 5.42115,4.94477 -0.12251,4.97117 l -5.67683,-0.0224 c -6.573054,-0.009 -8.292078,-0.0844 -8.855829,-0.39063 z m 35.877309,-4.44587 c 1.16731,-0.14951 3.031,-0.18 6.13671,-0.18 h 6.17823 v -4.1214 -1.60686 c -0.339,-5.34738 4.99642,-5.06448 4.97448,0.19784 0.11665,3.1982 0.0364,8.14369 -0.24067,8.93856 -0.54229,1.55561 -0.92956,1.61894 -9.9004,1.61894 h -7.21512 c -3.27774,0.0814 -3.16689,-4.66222 0.0668,-4.84708 z m -25.84455,-5.35493 c -1.13696,-0.59894 -1.09627,-1.57807 -1.13723,-2.50718 -0.16423,-3.80977 -0.17602,-13.33961 -0.036,-18.00434 -0.0927,-3.24897 0.89141,-3.64149 3.10707,-3.80029 2.19005,-0.14547 6.2395,-0.1466 14.00046,-0.1466 8.21731,0 12.27372,10e-4 14.36777,0.17383 2.30653,0.10693 2.63648,1.09598 2.70966,2.74938 0.0781,1.81057 0.12049,5.07048 0.12049,9.51221 0,5.3838 -0.0622,9.03129 -0.17499,10.46611 -0.0315,1.12615 -1.06674,1.57117 -1.6624,1.67802 -1.70345,0.28872 -5.60202,0.28755 -15.41354,0.28069 -8.99091,-0.006 -12.87319,-0.0379 -14.60472,-0.16976 -0.7458,-0.0568 -1.09261,-0.13214 -1.27676,-0.23207 z m 28.36991,-12.02299 v -7.40834 h -12.43542 -12.43542 v 7.40834 7.40833 h 12.43542 12.43542 z m -39.604324,-10.9564 c -0.158364,-3.11501 -0.0882,-8.79398 0.210089,-9.64966 0.542292,-1.55562 0.929568,-1.61894 9.900405,-1.61894 l 5.27345,0.03 c 4.39564,0.0671 4.24113,5.0097 -0.1807,4.95488 -1.04644,0.033 -2.37675,0.0422 -4.08111,0.0422 h -6.17823 c 0,2.12787 0,4.25575 0,6.38362 -0.0094,4.43413 -5.114783,4.75115 -4.943904,-0.1421 z m 49.393904,0.79796 v -2.91809 -4.12139 h -6.17823 c -2.96232,0 -4.79467,-0.0277 -5.97052,-0.16004 -3.59253,-0.31139 -3.44824,-4.86704 0.21794,-4.86704 h 6.76422 c 8.97084,0 9.35811,0.0633 9.9004,1.61894 0.1742,0.49969 0.29327,2.85036 0.29327,5.78939 0,2.34253 0.10487,3.84322 -0.0256,4.85701 0.077,3.44699 -5.00147,3.23539 -5.00147,-0.19878 z"
       style="fill:#2e3440;stroke-width:0.264583;fill-opacity:1" />
    <g
       style="fill:#2e3440;fill-opacity:1"
       inkscape:export-ydpi="95.999985"
       inkscape:export-xdpi="95.999985"
       transform="matrix(0.26458333,0,0,0.26458333,27.504591,182.89991)"
       id="g1029">
      <g
         style="fill:#2e3440;fill-opacity:1"
         id="g964">
	<g
   style="fill:#2e3440;fill-opacity:1"
   id="g962">
		<g
   style="fill:#2e3440;fill-opacity:1"
   id="g960">
			<path
   style="fill:#2e3440;fill-opacity:1"
   d="m 60,150.5 c 0,11.046 8.954,20 20,20 11.046,0 20,-8.954 20,-20 v -50 h 49 c 11.046,0 20,-8.954 20,-20 0,-11.046 -8.954,-20 -20,-20 h -49 v -40 c 0,-11.046 -8.954,-20 -20,-20 -11.046,0 -20,8.954 -20,20 v 40 H 20 c -11.046,0 -20,8.954 -20,20 0,11.046 8.954,20 20,20 h 40 z"
   id="path944" />

			<path
   style="fill:#2e3440;fill-opacity:1"
   d="m 432,210.5 c -11.046,0 -20,8.954 -20,20 v 52 c 0,11.046 8.954,20 20,20 11.046,0 20,-8.954 20,-20 v -52 c 0,-11.046 -8.954,-20 -20,-20 z"
   id="path946" />

			<path
   style="fill:#2e3440;fill-opacity:1"
   d="m 362,100.5 h 10 c 22.056,0 40,17.944 40,40 v 10 c 0,11.046 8.954,20 20,20 11.046,0 20,-8.954 20,-20 v -10 c 0,-44.112 -35.888,-80 -80,-80 h -10 c -11.046,0 -20,8.954 -20,20 0,11.046 8.954,20 20,20 z"
   id="path948" />

			<path
   style="fill:#2e3440;fill-opacity:1"
   d="m 80,210.5 c -11.046,0 -20,8.954 -20,20 v 52 c 0,11.046 8.954,20 20,20 11.046,0 20,-8.954 20,-20 v -52 c 0,-11.046 -8.954,-20 -20,-20 z"
   id="path950" />

			<path
   style="fill:#2e3440;fill-opacity:1"
   d="m 150,411.5 h -10 c -22.056,0 -40,-17.944 -40,-40 v -9 c 0,-11.046 -8.954,-20 -20,-20 -11.046,0 -20,8.954 -20,20 v 9 c 0,44.112 35.888,80 80,80 h 10 c 11.046,0 20,-8.954 20,-20 0,-11.046 -8.954,-20 -20,-20 z"
   id="path952" />

			<path
   style="fill:#2e3440;fill-opacity:1"
   d="m 492,411.5 h -40 v -49 c 0,-11.046 -8.954,-20 -20,-20 -11.046,0 -20,8.954 -20,20 v 49 h -50 c -11.046,0 -20,8.954 -20,20 0,11.046 8.954,20 20,20 h 50 v 40 c 0,11.046 8.954,20 20,20 11.046,0 20,-8.954 20,-20 v -40 h 40 c 11.046,0 20,-8.954 20,-20 0,-11.046 -8.954,-20 -20,-20 z"
   id="path954" />

			<path
   style="fill:#2e3440;fill-opacity:1"
   d="m 282,60.5 h -52 c -11.046,0 -20,8.954 -20,20 0,11.046 8.954,20 20,20 h 52 c 11.046,0 20,-8.954 20,-20 0,-11.046 -8.954,-20 -20,-20 z"
   id="path956" />

			<path
   style="fill:#2e3440;fill-opacity:1"
   d="m 282,411.5 h -52 c -11.046,0 -20,8.954 -20,20 0,11.046 8.954,20 20,20 h 52 c 11.046,0 20,-8.954 20,-20 0,-11.046 -8.954,-20 -20,-20 z"
   id="path958" />

		</g>

	</g>

</g>
      <g
         style="fill:#2e3440;fill-opacity:1"
         id="g966">
</g>
      <g
         style="fill:#2e3440;fill-opacity:1"
         id="g968">
</g>
      <g
         style="fill:#2e3440;fill-opacity:1"
         id="g970">
</g>
      <g
         style="fill:#2e3440;fill-opacity:1"
         id="g972">
</g>
      <g
         style="fill:#2e3440;fill-opacity:1"
         id="g974">
</g>
      <g
         style="fill:#2e3440;fill-opacity:1"
         id="g976">
</g>
      <g
         style="fill:#2e3440;fill-opacity:1"
         id="g978">
</g>
      <g
         style="fill:#2e3440;fill-opacity:1"
         id="g980">
</g>
      <g
         style="fill:#2e3440;fill-opacity:1"
         id="g982">
</g>
      <g
         style="fill:#2e3440;fill-opacity:1"
         id="g984">
</g>
      <g
         style="fill:#2e3440;fill-opacity:1"
         id="g986">
</g>
      <g
         style="fill:#2e3440;fill-opacity:1"
         id="g988">
</g>
      <g
         style="fill:#2e3440;fill-opacity:1"
         id="g990">
</g>
      <g
         style="fill:#2e3440;fill-opacity:1"
         id="g992">
</g>
      <g
         style="fill:#2e3440;fill-opacity:1"
         id="g994">
</g>
    </g>
  </g>
</svg>
