<?xml version="1.0" encoding="UTF-8" standalone="no"?>
<svg
   xmlns:dc="http://purl.org/dc/elements/1.1/"
   xmlns:cc="http://creativecommons.org/ns#"
   xmlns:rdf="http://www.w3.org/1999/02/22-rdf-syntax-ns#"
   xmlns:svg="http://www.w3.org/2000/svg"
   xmlns="http://www.w3.org/2000/svg"
   xmlns:sodipodi="http://sodipodi.sourceforge.net/DTD/sodipodi-0.dtd"
   xmlns:inkscape="http://www.inkscape.org/namespaces/inkscape"
   sodipodi:docname="video.svg"
   inkscape:version="1.0 (4035a4fb49, 2020-05-01)"
   id="svg8"
   version="1.1"
   viewBox="0 0 210 297"
   height="297mm"
   width="210mm">
  <defs
     id="defs2" />
  <sodipodi:namedview
     inkscape:window-maximized="0"
     inkscape:window-y="35"
     inkscape:window-x="5"
     inkscape:window-height="728"
     inkscape:window-width="1358"
     showgrid="false"
     inkscape:document-rotation="0"
     inkscape:current-layer="layer1"
     inkscape:document-units="mm"
     inkscape:cy="595.60414"
     inkscape:cx="604.1413"
     inkscape:zoom="0.32"
     inkscape:pageshadow="2"
     inkscape:pageopacity="0.0"
     borderopacity="1.0"
     bordercolor="#666666"
     pagecolor="#ffffff"
     id="base" />
  <metadata
     id="metadata5">
    <rdf:RDF>
      <cc:Work
         rdf:about="">
        <dc:format>image/svg+xml</dc:format>
        <dc:type
           rdf:resource="http://purl.org/dc/dcmitype/StillImage" />
        <dc:title></dc:title>
      </cc:Work>
    </rdf:RDF>
  </metadata>
  <g
     id="layer1"
     inkscape:groupmode="layer"
     inkscape:label="Layer 1">
    <g
       style="fill:#2e3440;fill-opacity:1"
       transform="matrix(0.26457972,0,0,0.26457972,33.821544,18.333545)"
       id="g947">
      <path
         style="fill:#2e3440;fill-opacity:1"
         d="m 142,143.003 h 139 v -143 c -49.379,0 -107.674,0 -154,0 v 128 c 0,8.271 6.729,15 15,15 z"
         id="path937" />
      <path
         style="fill:#2e3440;fill-opacity:1"
         d="m 345,128.003 v -128 c -9.97,0 -21.461,0 -34,0 v 143 h 19 c 8.271,0 15,-6.729 15,-15 z"
         id="path939" />
      <path
         style="fill:#2e3440;fill-opacity:1"
         d="m 127,512.003 h 218 v -161 H 127 Z"
         id="path941" />
      <path
         style="fill:#2e3440;fill-opacity:1"
         d="m 511.927,126.537 c -0.279,-2.828 -1.38,-5.667 -3.315,-8.027 -0.747,-0.913 6.893,6.786 -114.006,-114.113 -2.882,-2.882 -6.794,-4.396 -10.612,-4.394 -0.789,0 -3.925,0 -8.995,0 v 128 c 0,24.813 -20.187,45 -45,45 -14.028,0 -186.064,0 -188,0 -24.813,0 -45,-20.187 -45,-45 v -128 c -29.589,0 -49.82,0 -52,0 -24.813,0 -45,20.187 -45,45 v 422 c 0,24.813 20.187,45 45,45 h 52 c 0,-10.815 0,-201.797 0,-210 0,-24.813 20.187,-45 45,-45 h 188 c 24.813,0 45,20.187 45,45 v 210 h 92 c 24.813,0 45,-20.187 45,-45 C 512,102.817 512.04,127.687 511.927,126.537 Z"
         id="path943" />
      <path
         style="fill:#2e3440;fill-opacity:1"
         d="M 330,287.003 H 142 c -8.271,0 -15,6.729 -15,15 v 19 h 218 v -19 c 0,-8.271 -6.729,-15 -15,-15 z"
         id="path945" />
    </g>
    <g
       style="fill:#2e3440;fill-opacity:1"
       transform="matrix(0.35277778,0,0,0.35277778,157.233,167.99112)"
       id="g976">
      <path
         style="fill:#2e3440;fill-opacity:1"
         d="M 278.90625,0 H 30 C 13.4375,0.0195312 0.0195312,13.4375 0,30 v 197.42187 c 0.0195312,16.5625 13.4375,29.98047 30,30 h 248.90625 c 16.55859,-0.0195 29.98047,-13.4375 30,-30 V 30 c -0.0195,-16.5625 -13.44141,-29.9804688 -30,-30 z m 0,0"
         id="path962" />
      <path
         style="fill:#2e3440;fill-opacity:1"
         d="M 328.90625,169.80078 432,226.08594 V 31.980469 L 328.90625,88.265625 Z m 0,0"
         id="path964" />
    </g>
  </g>
</svg>
